solid OpenSCAD_Model
  facet normal 0.531716 0.84676 -0.0166161
    outer loop
      vertex 0.5 0 0
      vertex -0.0450697 0.63662 15
      vertex 1 0 16
    endloop
  endfacet
  facet normal 0.499913 -0.865876 -0.0185831
    outer loop
      vertex -0.0450697 -0.63662 15
      vertex -0.25 -0.433012 0
      vertex 0.5 0 0
    endloop
  endfacet
  facet normal 0.418283 0.908137 -0.0180415
    outer loop
      vertex -0.25 0.433012 0
      vertex -0.5 0.866025 16
      vertex -0.0450697 0.63662 15
    endloop
  endfacet
  facet normal 0.531716 -0.84676 -0.0166161
    outer loop
      vertex 1 0 16
      vertex -0.0450697 -0.63662 15
      vertex 0.5 0 0
    endloop
  endfacet
  facet normal -0.161415 -0.98685 0.00845892
    outer loop
      vertex -1.9497 -0.63662 15.0998
      vertex -1.95493 -0.63662 15
      vertex -0.5 -0.866025 16
    endloop
  endfacet
  facet normal -0.266318 0.906037 0.328896
    outer loop
      vertex -0.5 0.866025 16
      vertex -1.63897 0.63662 15.7097
      vertex -1.56129 0.63662 15.7726
    endloop
  endfacet
  facet normal -0.99863 0 -0.052333
    outer loop
      vertex -1.9497 -0.63662 14.9002
      vertex -1.95493 0.63662 15
      vertex -1.9497 0.63662 14.9002
    endloop
  endfacet
  facet normal -0.99863 -0 -0.052333
    outer loop
      vertex -1.95493 0.63662 15
      vertex -1.9497 -0.63662 14.9002
      vertex -1.95493 -0.63662 15
    endloop
  endfacet
  facet normal -0.993557 0 -0.113337
    outer loop
      vertex -0.25 -0.433012 0
      vertex -1.9497 0.63662 14.9002
      vertex -0.25 0.433012 0
    endloop
  endfacet
  facet normal -0.993557 -0 -0.113337
    outer loop
      vertex -1.9497 0.63662 14.9002
      vertex -0.25 -0.433012 0
      vertex -1.9497 -0.63662 14.9002
    endloop
  endfacet
  facet normal -0 0 -1
    outer loop
      vertex 0.5 0 0
      vertex -0.25 -0.433012 0
      vertex -0.25 0.433012 0
    endloop
  endfacet
  facet normal 0 0 1
    outer loop
      vertex -0.5 0.866025 16
      vertex -0.5 -0.866025 16
      vertex 1 0 16
    endloop
  endfacet
  facet normal -0.139838 0.989926 -0.0221588
    outer loop
      vertex -1.93406 0.63662 14.8015
      vertex -1.9497 0.63662 14.9002
      vertex -0.5 0.866025 16
    endloop
  endfacet
  facet normal -0.293905 -0.954699 -0.0465722
    outer loop
      vertex -1.93406 -0.63662 14.8015
      vertex -1.9497 -0.63662 14.9002
      vertex -0.25 -0.433012 0
    endloop
  endfacet
  facet normal 0.501592 -0.864705 0.0262903
    outer loop
      vertex 1 0 16
      vertex -0.0503006 -0.63662 15.0998
      vertex -0.0450697 -0.63662 15
    endloop
  endfacet
  facet normal 0.418283 -0.908137 -0.0180415
    outer loop
      vertex -0.0450697 -0.63662 15
      vertex -0.5 -0.866025 16
      vertex -0.25 -0.433012 0
    endloop
  endfacet
  facet normal -0.134301 -0.990519 -0.0288998
    outer loop
      vertex -0.5 -0.866025 16
      vertex -1.04991 -0.76817 15.2016
      vertex -1 -0.775013 15.2042
    endloop
  endfacet
  facet normal -0.13432 -0.990517 -0.0288864
    outer loop
      vertex -0.5 -0.866025 16
      vertex -1.09927 -0.761249 15.1938
      vertex -1.04991 -0.76817 15.2016
    endloop
  endfacet
  facet normal -0.134322 -0.990517 -0.0288849
    outer loop
      vertex -0.5 -0.866025 16
      vertex -1.14754 -0.754327 15.1809
      vertex -1.09927 -0.761249 15.1938
    endloop
  endfacet
  facet normal -0.13422 -0.990528 -0.0289672
    outer loop
      vertex -0.5 -0.866025 16
      vertex -1.1942 -0.747478 15.1629
      vertex -1.14754 -0.754327 15.1809
    endloop
  endfacet
  facet normal -0.134375 -0.990511 -0.0288361
    outer loop
      vertex -0.5 -0.866025 16
      vertex -1.23873 -0.740779 15.1403
      vertex -1.1942 -0.747478 15.1629
    endloop
  endfacet
  facet normal -0.134124 -0.990538 -0.0290558
    outer loop
      vertex -0.5 -0.866025 16
      vertex -1.28065 -0.734302 15.113
      vertex -1.23873 -0.740779 15.1403
    endloop
  endfacet
  facet normal -0.134303 -0.990519 -0.0288959
    outer loop
      vertex -1.93406 -0.63662 14.8015
      vertex -1.28065 -0.734302 15.113
      vertex -0.5 -0.866025 16
    endloop
  endfacet
  facet normal -0.13424 -0.990524 -0.0290293
    outer loop
      vertex -1.28065 -0.734302 15.113
      vertex -1.93406 -0.63662 14.8015
      vertex -1.31949 -0.728118 15.0816
    endloop
  endfacet
  facet normal -0.134353 -0.990516 -0.0287778
    outer loop
      vertex -1.31949 -0.728118 15.0816
      vertex -1.93406 -0.63662 14.8015
      vertex -1.35483 -0.722296 15.0462
    endloop
  endfacet
  facet normal -0.134274 -0.990521 -0.0289666
    outer loop
      vertex -1.93406 -0.63662 14.8015
      vertex -1.38628 -0.716898 15.0074
      vertex -1.35483 -0.722296 15.0462
    endloop
  endfacet
  facet normal -0.1343 -0.990519 -0.0288965
    outer loop
      vertex -1.93406 -0.63662 14.8015
      vertex -1.4135 -0.711985 14.9655
      vertex -1.38628 -0.716898 15.0074
    endloop
  endfacet
  facet normal -0.134278 -0.99052 -0.0289684
    outer loop
      vertex -1.93406 -0.63662 14.8015
      vertex -1.43618 -0.707609 14.921
      vertex -1.4135 -0.711985 14.9655
    endloop
  endfacet
  facet normal -0.134306 -0.99052 -0.0288501
    outer loop
      vertex -1.93406 -0.63662 14.8015
      vertex -1.4541 -0.703819 14.8743
      vertex -1.43618 -0.707609 14.921
    endloop
  endfacet
  facet normal -0.1343 -0.990519 -0.0288929
    outer loop
      vertex -1.93406 -0.63662 14.8015
      vertex -1.46703 -0.700657 14.826
      vertex -1.4541 -0.703819 14.8743
    endloop
  endfacet
  facet normal -0.134297 -0.990518 -0.028947
    outer loop
      vertex -1.93406 -0.63662 14.8015
      vertex -1.47485 -0.698156 14.7767
      vertex -1.46703 -0.700657 14.826
    endloop
  endfacet
  facet normal -0.134296 -0.990519 -0.0289242
    outer loop
      vertex -1.93406 -0.63662 14.8015
      vertex -1.47746 -0.696345 14.7268
      vertex -1.47485 -0.698156 14.7767
    endloop
  endfacet
  facet normal -0.134292 -0.99052 -0.0288989
    outer loop
      vertex -1.93406 -0.63662 14.8015
      vertex -1.47485 -0.695243 14.6769
      vertex -1.47746 -0.696345 14.7268
    endloop
  endfacet
  facet normal -0.134286 -0.990522 -0.0288768
    outer loop
      vertex -1.93406 -0.63662 14.8015
      vertex -1.46703 -0.694863 14.6275
      vertex -1.47485 -0.695243 14.6769
    endloop
  endfacet
  facet normal -0.134284 -0.990522 -0.0288731
    outer loop
      vertex -1.93406 -0.63662 14.8015
      vertex -1.4541 -0.695208 14.5792
      vertex -1.46703 -0.694863 14.6275
    endloop
  endfacet
  facet normal -0.134332 -0.990513 -0.0289774
    outer loop
      vertex -1.93406 -0.63662 14.8015
      vertex -1.43618 -0.696275 14.5326
      vertex -1.4541 -0.695208 14.5792
    endloop
  endfacet
  facet normal -0.134252 -0.990528 -0.0288264
    outer loop
      vertex -1.93406 -0.63662 14.8015
      vertex -1.4135 -0.698051 14.488
      vertex -1.43618 -0.696275 14.5326
    endloop
  endfacet
  facet normal -0.134295 -0.99052 -0.0289002
    outer loop
      vertex -1.93406 -0.63662 14.8015
      vertex -1.38628 -0.700519 14.4461
      vertex -1.4135 -0.698051 14.488
    endloop
  endfacet
  facet normal -0.134362 -0.990508 -0.0290051
    outer loop
      vertex -1.93406 -0.63662 14.8015
      vertex -1.35483 -0.703649 14.4073
      vertex -1.38628 -0.700519 14.4461
    endloop
  endfacet
  facet normal -0.134144 -0.990547 -0.0286781
    outer loop
      vertex -1.93406 -0.63662 14.8015
      vertex -1.31949 -0.70741 14.3719
      vertex -1.35483 -0.703649 14.4073
    endloop
  endfacet
  facet normal -0.134747 -0.990439 -0.0295588
    outer loop
      vertex -1.93406 -0.63662 14.8015
      vertex -1.28065 -0.711757 14.3405
      vertex -1.31949 -0.70741 14.3719
    endloop
  endfacet
  facet normal -0.134277 -0.990522 -0.0289042
    outer loop
      vertex -1.04991 -0.740456 14.2519
      vertex -0.25 -0.433012 0
      vertex -1 -0.747146 14.2493
    endloop
  endfacet
  facet normal -0.134283 -0.990521 -0.0289045
    outer loop
      vertex -1.09927 -0.733992 14.2597
      vertex -0.25 -0.433012 0
      vertex -1.04991 -0.740456 14.2519
    endloop
  endfacet
  facet normal -0.134354 -0.990512 -0.0289086
    outer loop
      vertex -1.14754 -0.727824 14.2727
      vertex -0.25 -0.433012 0
      vertex -1.09927 -0.733992 14.2597
    endloop
  endfacet
  facet normal -0.134277 -0.990522 -0.0289039
    outer loop
      vertex -1.1942 -0.722021 14.2906
      vertex -0.25 -0.433012 0
      vertex -1.14754 -0.727824 14.2727
    endloop
  endfacet
  facet normal -0.134296 -0.99052 -0.0289051
    outer loop
      vertex -1.23873 -0.716646 14.3133
      vertex -0.25 -0.433012 0
      vertex -1.1942 -0.722021 14.2906
    endloop
  endfacet
  facet normal -0.134276 -0.990522 -0.0289038
    outer loop
      vertex -1.28065 -0.711757 14.3405
      vertex -0.25 -0.433012 0
      vertex -1.23873 -0.716646 14.3133
    endloop
  endfacet
  facet normal -0.134295 -0.99052 -0.0289051
    outer loop
      vertex -0.25 -0.433012 0
      vertex -1.28065 -0.711757 14.3405
      vertex -1.93406 -0.63662 14.8015
    endloop
  endfacet
  facet normal -0.134277 -0.990522 -0.0289153
    outer loop
      vertex -0.95009 -0.781703 15.2016
      vertex -0.5 -0.866025 16
      vertex -1 -0.775013 15.2042
    endloop
  endfacet
  facet normal -0.134299 -0.990519 -0.0289026
    outer loop
      vertex -0.900729 -0.788168 15.1938
      vertex -0.5 -0.866025 16
      vertex -0.95009 -0.781703 15.2016
    endloop
  endfacet
  facet normal -0.134267 -0.990523 -0.0289189
    outer loop
      vertex -0.852455 -0.794335 15.1809
      vertex -0.5 -0.866025 16
      vertex -0.900729 -0.788168 15.1938
    endloop
  endfacet
  facet normal -0.134338 -0.990514 -0.0288877
    outer loop
      vertex -0.805797 -0.800138 15.1629
      vertex -0.5 -0.866025 16
      vertex -0.852455 -0.794335 15.1809
    endloop
  endfacet
  facet normal -0.13426 -0.990524 -0.028917
    outer loop
      vertex -0.761267 -0.805514 15.1403
      vertex -0.5 -0.866025 16
      vertex -0.805797 -0.800138 15.1629
    endloop
  endfacet
  facet normal -0.134333 -0.990515 -0.028894
    outer loop
      vertex -0.719353 -0.810402 15.113
      vertex -0.5 -0.866025 16
      vertex -0.761267 -0.805514 15.1403
    endloop
  endfacet
  facet normal -0.13426 -0.990524 -0.0289127
    outer loop
      vertex -0.680513 -0.81475 15.0816
      vertex -0.5 -0.866025 16
      vertex -0.719353 -0.810402 15.113
    endloop
  endfacet
  facet normal -0.134336 -0.990514 -0.0288973
    outer loop
      vertex -0.645174 -0.81851 15.0462
      vertex -0.5 -0.866025 16
      vertex -0.680513 -0.81475 15.0816
    endloop
  endfacet
  facet normal -0.134271 -0.990523 -0.0289076
    outer loop
      vertex -0.613723 -0.821641 15.0074
      vertex -0.5 -0.866025 16
      vertex -0.645174 -0.81851 15.0462
    endloop
  endfacet
  facet normal -0.134271 -0.990523 -0.0289076
    outer loop
      vertex -0.586503 -0.824108 14.9655
      vertex -0.5 -0.866025 16
      vertex -0.613723 -0.821641 15.0074
    endloop
  endfacet
  facet normal -0.134274 -0.990523 -0.0289074
    outer loop
      vertex -0.563814 -0.825885 14.921
      vertex -0.5 -0.866025 16
      vertex -0.586503 -0.824108 14.9655
    endloop
  endfacet
  facet normal -0.134363 -0.990511 -0.0289016
    outer loop
      vertex -0.545903 -0.826952 14.8743
      vertex -0.5 -0.866025 16
      vertex -0.563814 -0.825885 14.921
    endloop
  endfacet
  facet normal -0.134351 -0.990512 -0.0289022
    outer loop
      vertex -0.532969 -0.827297 14.826
      vertex -0.5 -0.866025 16
      vertex -0.545903 -0.826952 14.8743
    endloop
  endfacet
  facet normal -0.134031 -0.990555 -0.0289126
    outer loop
      vertex -0.52515 -0.826916 14.7767
      vertex -0.5 -0.866025 16
      vertex -0.532969 -0.827297 14.826
    endloop
  endfacet
  facet normal -0.134171 -0.990536 -0.0289091
    outer loop
      vertex -0.522534 -0.825814 14.7268
      vertex -0.5 -0.866025 16
      vertex -0.52515 -0.826916 14.7767
    endloop
  endfacet
  facet normal -0.134332 -0.990515 -0.0289055
    outer loop
      vertex -0.522534 -0.825814 14.7268
      vertex -0.25 -0.433012 0
      vertex -0.5 -0.866025 16
    endloop
  endfacet
  facet normal -0.134338 -0.990514 -0.0289056
    outer loop
      vertex -0.52515 -0.824003 14.6769
      vertex -0.25 -0.433012 0
      vertex -0.522534 -0.825814 14.7268
    endloop
  endfacet
  facet normal -0.134109 -0.990545 -0.0289022
    outer loop
      vertex -0.532969 -0.821503 14.6275
      vertex -0.25 -0.433012 0
      vertex -0.52515 -0.824003 14.6769
    endloop
  endfacet
  facet normal -0.13429 -0.99052 -0.028905
    outer loop
      vertex -0.545903 -0.81834 14.5792
      vertex -0.25 -0.433012 0
      vertex -0.532969 -0.821503 14.6275
    endloop
  endfacet
  facet normal -0.134334 -0.990514 -0.0289058
    outer loop
      vertex -0.563814 -0.814551 14.5326
      vertex -0.25 -0.433012 0
      vertex -0.545903 -0.81834 14.5792
    endloop
  endfacet
  facet normal -0.134226 -0.990529 -0.0289038
    outer loop
      vertex -0.586503 -0.810175 14.488
      vertex -0.25 -0.433012 0
      vertex -0.563814 -0.814551 14.5326
    endloop
  endfacet
  facet normal -0.134322 -0.990516 -0.0289057
    outer loop
      vertex -0.613723 -0.805261 14.4461
      vertex -0.25 -0.433012 0
      vertex -0.586503 -0.810175 14.488
    endloop
  endfacet
  facet normal -0.134313 -0.990517 -0.0289055
    outer loop
      vertex -0.645174 -0.799864 14.4073
      vertex -0.25 -0.433012 0
      vertex -0.613723 -0.805261 14.4461
    endloop
  endfacet
  facet normal -0.13426 -0.990525 -0.0289042
    outer loop
      vertex -0.680513 -0.794041 14.3719
      vertex -0.25 -0.433012 0
      vertex -0.645174 -0.799864 14.4073
    endloop
  endfacet
  facet normal -0.134313 -0.990517 -0.0289056
    outer loop
      vertex -0.719353 -0.787858 14.3405
      vertex -0.25 -0.433012 0
      vertex -0.680513 -0.794041 14.3719
    endloop
  endfacet
  facet normal -0.134307 -0.990518 -0.0289055
    outer loop
      vertex -0.761267 -0.781381 14.3133
      vertex -0.25 -0.433012 0
      vertex -0.719353 -0.787858 14.3405
    endloop
  endfacet
  facet normal -0.134299 -0.990519 -0.0289052
    outer loop
      vertex -0.805797 -0.774681 14.2906
      vertex -0.25 -0.433012 0
      vertex -0.761267 -0.781381 14.3133
    endloop
  endfacet
  facet normal -0.13429 -0.99052 -0.0289049
    outer loop
      vertex -0.852455 -0.767833 14.2727
      vertex -0.25 -0.433012 0
      vertex -0.805797 -0.774681 14.2906
    endloop
  endfacet
  facet normal -0.134268 -0.990523 -0.028904
    outer loop
      vertex -0.900729 -0.76091 14.2597
      vertex -0.25 -0.433012 0
      vertex -0.852455 -0.767833 14.2727
    endloop
  endfacet
  facet normal -0.134295 -0.99052 -0.0289052
    outer loop
      vertex -0.95009 -0.75399 14.2519
      vertex -0.25 -0.433012 0
      vertex -0.900729 -0.76091 14.2597
    endloop
  endfacet
  facet normal -0.134321 -0.990516 -0.0289063
    outer loop
      vertex -0.25 -0.433012 0
      vertex -0.95009 -0.75399 14.2519
      vertex -1 -0.747146 14.2493
    endloop
  endfacet
  facet normal -0.223866 0.963708 0.145433
    outer loop
      vertex -0.5 0.866025 16
      vertex -1.82699 0.63662 15.4775
      vertex -1.77255 0.63662 15.5613
    endloop
  endfacet
  facet normal 0.499913 0.865876 -0.0185831
    outer loop
      vertex 0.5 0 0
      vertex -0.25 0.433012 0
      vertex -0.0450697 0.63662 15
    endloop
  endfacet
  facet normal -0.277597 -0.860203 0.427775
    outer loop
      vertex -1.47746 -0.63662 15.827
      vertex -1.56129 -0.63662 15.7726
      vertex -0.5 -0.866025 16
    endloop
  endfacet
  facet normal 0.494988 0.868512 0.0259442
    outer loop
      vertex -0.0450697 0.63662 15
      vertex -0.5 0.866025 16
      vertex -0.0503006 0.63662 15.0998
    endloop
  endfacet
  facet normal -0.210143 -0.971795 0.107029
    outer loop
      vertex -1.82699 -0.63662 15.4775
      vertex -1.87237 -0.63662 15.3884
      vertex -0.5 -0.866025 16
    endloop
  endfacet
  facet normal -0.933562 0 0.358416
    outer loop
      vertex -1.90819 -0.63662 15.2951
      vertex -1.87237 0.63662 15.3884
      vertex -1.90819 0.63662 15.2951
    endloop
  endfacet
  facet normal -0.933562 0 0.358416
    outer loop
      vertex -1.87237 0.63662 15.3884
      vertex -1.90819 -0.63662 15.2951
      vertex -1.87237 -0.63662 15.3884
    endloop
  endfacet
  facet normal 0.494988 -0.868512 0.0259442
    outer loop
      vertex -0.0503006 -0.63662 15.0998
      vertex -0.5 -0.866025 16
      vertex -0.0450697 -0.63662 15
    endloop
  endfacet
  facet normal 0.499789 -0.86566 0.0290691
    outer loop
      vertex 1 0 16
      vertex -0.5 -0.866025 16
      vertex -0.0503006 -0.63662 15.0998
    endloop
  endfacet
  facet normal -0.139838 -0.989926 -0.0221588
    outer loop
      vertex -0.5 -0.866025 16
      vertex -1.9497 -0.63662 14.9002
      vertex -1.93406 -0.63662 14.8015
    endloop
  endfacet
  facet normal -0.150455 -0.988585 -0.00788458
    outer loop
      vertex -0.5 -0.866025 16
      vertex -1.95493 -0.63662 15
      vertex -1.9497 -0.63662 14.9002
    endloop
  endfacet
  facet normal -0.134277 0.990522 -0.0289153
    outer loop
      vertex -0.5 0.866025 16
      vertex -0.95009 0.781703 15.2016
      vertex -1 0.775013 15.2042
    endloop
  endfacet
  facet normal -0.134299 0.990519 -0.0289026
    outer loop
      vertex -0.5 0.866025 16
      vertex -0.900729 0.788168 15.1938
      vertex -0.95009 0.781703 15.2016
    endloop
  endfacet
  facet normal -0.134267 0.990523 -0.0289189
    outer loop
      vertex -0.5 0.866025 16
      vertex -0.852455 0.794335 15.1809
      vertex -0.900729 0.788168 15.1938
    endloop
  endfacet
  facet normal -0.134338 0.990514 -0.0288877
    outer loop
      vertex -0.5 0.866025 16
      vertex -0.805797 0.800138 15.1629
      vertex -0.852455 0.794335 15.1809
    endloop
  endfacet
  facet normal -0.13426 0.990524 -0.028917
    outer loop
      vertex -0.5 0.866025 16
      vertex -0.761267 0.805514 15.1403
      vertex -0.805797 0.800138 15.1629
    endloop
  endfacet
  facet normal -0.134333 0.990515 -0.028894
    outer loop
      vertex -0.5 0.866025 16
      vertex -0.719353 0.810402 15.113
      vertex -0.761267 0.805514 15.1403
    endloop
  endfacet
  facet normal -0.13426 0.990524 -0.0289127
    outer loop
      vertex -0.5 0.866025 16
      vertex -0.680513 0.81475 15.0816
      vertex -0.719353 0.810402 15.113
    endloop
  endfacet
  facet normal -0.134336 0.990514 -0.0288973
    outer loop
      vertex -0.5 0.866025 16
      vertex -0.645174 0.81851 15.0462
      vertex -0.680513 0.81475 15.0816
    endloop
  endfacet
  facet normal -0.134271 0.990523 -0.0289076
    outer loop
      vertex -0.5 0.866025 16
      vertex -0.613723 0.821641 15.0074
      vertex -0.645174 0.81851 15.0462
    endloop
  endfacet
  facet normal -0.134271 0.990523 -0.0289076
    outer loop
      vertex -0.5 0.866025 16
      vertex -0.586503 0.824108 14.9655
      vertex -0.613723 0.821641 15.0074
    endloop
  endfacet
  facet normal -0.134274 0.990523 -0.0289074
    outer loop
      vertex -0.5 0.866025 16
      vertex -0.563814 0.825885 14.921
      vertex -0.586503 0.824108 14.9655
    endloop
  endfacet
  facet normal -0.134363 0.990511 -0.0289016
    outer loop
      vertex -0.5 0.866025 16
      vertex -0.545903 0.826952 14.8743
      vertex -0.563814 0.825885 14.921
    endloop
  endfacet
  facet normal -0.134351 0.990512 -0.0289022
    outer loop
      vertex -0.5 0.866025 16
      vertex -0.532969 0.827297 14.826
      vertex -0.545903 0.826952 14.8743
    endloop
  endfacet
  facet normal -0.134031 0.990555 -0.0289126
    outer loop
      vertex -0.5 0.866025 16
      vertex -0.52515 0.826916 14.7767
      vertex -0.532969 0.827297 14.826
    endloop
  endfacet
  facet normal -0.134171 0.990536 -0.0289091
    outer loop
      vertex -0.5 0.866025 16
      vertex -0.522534 0.825814 14.7268
      vertex -0.52515 0.826916 14.7767
    endloop
  endfacet
  facet normal -0.134321 0.990516 -0.0289063
    outer loop
      vertex -0.95009 0.75399 14.2519
      vertex -0.25 0.433012 0
      vertex -1 0.747146 14.2493
    endloop
  endfacet
  facet normal -0.134295 0.99052 -0.0289052
    outer loop
      vertex -0.900729 0.76091 14.2597
      vertex -0.25 0.433012 0
      vertex -0.95009 0.75399 14.2519
    endloop
  endfacet
  facet normal -0.134268 0.990523 -0.028904
    outer loop
      vertex -0.852455 0.767833 14.2727
      vertex -0.25 0.433012 0
      vertex -0.900729 0.76091 14.2597
    endloop
  endfacet
  facet normal -0.13429 0.99052 -0.0289049
    outer loop
      vertex -0.805797 0.774681 14.2906
      vertex -0.25 0.433012 0
      vertex -0.852455 0.767833 14.2727
    endloop
  endfacet
  facet normal -0.134299 0.990519 -0.0289052
    outer loop
      vertex -0.761267 0.781381 14.3133
      vertex -0.25 0.433012 0
      vertex -0.805797 0.774681 14.2906
    endloop
  endfacet
  facet normal -0.134307 0.990518 -0.0289055
    outer loop
      vertex -0.719353 0.787858 14.3405
      vertex -0.25 0.433012 0
      vertex -0.761267 0.781381 14.3133
    endloop
  endfacet
  facet normal -0.134313 0.990517 -0.0289056
    outer loop
      vertex -0.680513 0.794041 14.3719
      vertex -0.25 0.433012 0
      vertex -0.719353 0.787858 14.3405
    endloop
  endfacet
  facet normal -0.13426 0.990525 -0.0289042
    outer loop
      vertex -0.645174 0.799864 14.4073
      vertex -0.25 0.433012 0
      vertex -0.680513 0.794041 14.3719
    endloop
  endfacet
  facet normal -0.134313 0.990517 -0.0289055
    outer loop
      vertex -0.613723 0.805261 14.4461
      vertex -0.25 0.433012 0
      vertex -0.645174 0.799864 14.4073
    endloop
  endfacet
  facet normal -0.134322 0.990516 -0.0289057
    outer loop
      vertex -0.586503 0.810175 14.488
      vertex -0.25 0.433012 0
      vertex -0.613723 0.805261 14.4461
    endloop
  endfacet
  facet normal -0.134226 0.990529 -0.0289038
    outer loop
      vertex -0.563814 0.814551 14.5326
      vertex -0.25 0.433012 0
      vertex -0.586503 0.810175 14.488
    endloop
  endfacet
  facet normal -0.134334 0.990514 -0.0289058
    outer loop
      vertex -0.545903 0.81834 14.5792
      vertex -0.25 0.433012 0
      vertex -0.563814 0.814551 14.5326
    endloop
  endfacet
  facet normal -0.13429 0.99052 -0.028905
    outer loop
      vertex -0.532969 0.821503 14.6275
      vertex -0.25 0.433012 0
      vertex -0.545903 0.81834 14.5792
    endloop
  endfacet
  facet normal -0.134109 0.990545 -0.0289022
    outer loop
      vertex -0.52515 0.824003 14.6769
      vertex -0.25 0.433012 0
      vertex -0.532969 0.821503 14.6275
    endloop
  endfacet
  facet normal -0.134338 0.990514 -0.0289056
    outer loop
      vertex -0.522534 0.825814 14.7268
      vertex -0.25 0.433012 0
      vertex -0.52515 0.824003 14.6769
    endloop
  endfacet
  facet normal -0.134332 0.990515 -0.0289055
    outer loop
      vertex -0.25 0.433012 0
      vertex -0.522534 0.825814 14.7268
      vertex -0.5 0.866025 16
    endloop
  endfacet
  facet normal -0.134301 0.990519 -0.0288998
    outer loop
      vertex -1.04991 0.76817 15.2016
      vertex -0.5 0.866025 16
      vertex -1 0.775013 15.2042
    endloop
  endfacet
  facet normal -0.13432 0.990517 -0.0288864
    outer loop
      vertex -1.09927 0.761249 15.1938
      vertex -0.5 0.866025 16
      vertex -1.04991 0.76817 15.2016
    endloop
  endfacet
  facet normal -0.134322 0.990517 -0.0288849
    outer loop
      vertex -1.14754 0.754327 15.1809
      vertex -0.5 0.866025 16
      vertex -1.09927 0.761249 15.1938
    endloop
  endfacet
  facet normal -0.13422 0.990528 -0.0289672
    outer loop
      vertex -1.1942 0.747478 15.1629
      vertex -0.5 0.866025 16
      vertex -1.14754 0.754327 15.1809
    endloop
  endfacet
  facet normal -0.134375 0.990511 -0.0288361
    outer loop
      vertex -1.23873 0.740779 15.1403
      vertex -0.5 0.866025 16
      vertex -1.1942 0.747478 15.1629
    endloop
  endfacet
  facet normal -0.134124 0.990538 -0.0290558
    outer loop
      vertex -1.28065 0.734302 15.113
      vertex -0.5 0.866025 16
      vertex -1.23873 0.740779 15.1403
    endloop
  endfacet
  facet normal -0.13424 0.990524 -0.0290293
    outer loop
      vertex -1.93406 0.63662 14.8015
      vertex -1.28065 0.734302 15.113
      vertex -1.31949 0.728118 15.0816
    endloop
  endfacet
  facet normal -0.134353 0.990516 -0.0287778
    outer loop
      vertex -1.93406 0.63662 14.8015
      vertex -1.31949 0.728118 15.0816
      vertex -1.35483 0.722296 15.0462
    endloop
  endfacet
  facet normal -0.134303 0.990519 -0.0288959
    outer loop
      vertex -1.28065 0.734302 15.113
      vertex -1.93406 0.63662 14.8015
      vertex -0.5 0.866025 16
    endloop
  endfacet
  facet normal -0.134274 0.990521 -0.0289666
    outer loop
      vertex -1.38628 0.716898 15.0074
      vertex -1.93406 0.63662 14.8015
      vertex -1.35483 0.722296 15.0462
    endloop
  endfacet
  facet normal -0.1343 0.990519 -0.0288965
    outer loop
      vertex -1.4135 0.711985 14.9655
      vertex -1.93406 0.63662 14.8015
      vertex -1.38628 0.716898 15.0074
    endloop
  endfacet
  facet normal -0.134278 0.99052 -0.0289684
    outer loop
      vertex -1.43618 0.707609 14.921
      vertex -1.93406 0.63662 14.8015
      vertex -1.4135 0.711985 14.9655
    endloop
  endfacet
  facet normal -0.134306 0.99052 -0.0288501
    outer loop
      vertex -1.4541 0.703819 14.8743
      vertex -1.93406 0.63662 14.8015
      vertex -1.43618 0.707609 14.921
    endloop
  endfacet
  facet normal -0.1343 0.990519 -0.0288929
    outer loop
      vertex -1.46703 0.700657 14.826
      vertex -1.93406 0.63662 14.8015
      vertex -1.4541 0.703819 14.8743
    endloop
  endfacet
  facet normal -0.134297 0.990518 -0.028947
    outer loop
      vertex -1.47485 0.698156 14.7767
      vertex -1.93406 0.63662 14.8015
      vertex -1.46703 0.700657 14.826
    endloop
  endfacet
  facet normal -0.134296 0.990519 -0.0289242
    outer loop
      vertex -1.47746 0.696345 14.7268
      vertex -1.93406 0.63662 14.8015
      vertex -1.47485 0.698156 14.7767
    endloop
  endfacet
  facet normal -0.134292 0.99052 -0.0288989
    outer loop
      vertex -1.47485 0.695243 14.6769
      vertex -1.93406 0.63662 14.8015
      vertex -1.47746 0.696345 14.7268
    endloop
  endfacet
  facet normal -0.134286 0.990522 -0.0288768
    outer loop
      vertex -1.46703 0.694863 14.6275
      vertex -1.93406 0.63662 14.8015
      vertex -1.47485 0.695243 14.6769
    endloop
  endfacet
  facet normal -0.134284 0.990522 -0.0288731
    outer loop
      vertex -1.4541 0.695208 14.5792
      vertex -1.93406 0.63662 14.8015
      vertex -1.46703 0.694863 14.6275
    endloop
  endfacet
  facet normal -0.134332 0.990513 -0.0289774
    outer loop
      vertex -1.43618 0.696275 14.5326
      vertex -1.93406 0.63662 14.8015
      vertex -1.4541 0.695208 14.5792
    endloop
  endfacet
  facet normal -0.134252 0.990528 -0.0288264
    outer loop
      vertex -1.4135 0.698051 14.488
      vertex -1.93406 0.63662 14.8015
      vertex -1.43618 0.696275 14.5326
    endloop
  endfacet
  facet normal -0.134295 0.99052 -0.0289002
    outer loop
      vertex -1.38628 0.700519 14.4461
      vertex -1.93406 0.63662 14.8015
      vertex -1.4135 0.698051 14.488
    endloop
  endfacet
  facet normal -0.134362 0.990508 -0.0290051
    outer loop
      vertex -1.35483 0.703649 14.4073
      vertex -1.93406 0.63662 14.8015
      vertex -1.38628 0.700519 14.4461
    endloop
  endfacet
  facet normal -0.134144 0.990547 -0.0286781
    outer loop
      vertex -1.31949 0.70741 14.3719
      vertex -1.93406 0.63662 14.8015
      vertex -1.35483 0.703649 14.4073
    endloop
  endfacet
  facet normal -0.134747 0.990439 -0.0295588
    outer loop
      vertex -1.28065 0.711757 14.3405
      vertex -1.93406 0.63662 14.8015
      vertex -1.31949 0.70741 14.3719
    endloop
  endfacet
  facet normal -0.134295 0.99052 -0.0289051
    outer loop
      vertex -1.28065 0.711757 14.3405
      vertex -0.25 0.433012 0
      vertex -1.93406 0.63662 14.8015
    endloop
  endfacet
  facet normal -0.134276 0.990522 -0.0289038
    outer loop
      vertex -1.23873 0.716646 14.3133
      vertex -0.25 0.433012 0
      vertex -1.28065 0.711757 14.3405
    endloop
  endfacet
  facet normal -0.134296 0.99052 -0.0289051
    outer loop
      vertex -1.1942 0.722021 14.2906
      vertex -0.25 0.433012 0
      vertex -1.23873 0.716646 14.3133
    endloop
  endfacet
  facet normal -0.134277 0.990522 -0.0289039
    outer loop
      vertex -1.14754 0.727824 14.2727
      vertex -0.25 0.433012 0
      vertex -1.1942 0.722021 14.2906
    endloop
  endfacet
  facet normal -0.134354 0.990512 -0.0289086
    outer loop
      vertex -1.09927 0.733992 14.2597
      vertex -0.25 0.433012 0
      vertex -1.14754 0.727824 14.2727
    endloop
  endfacet
  facet normal -0.134283 0.990521 -0.0289045
    outer loop
      vertex -1.04991 0.740456 14.2519
      vertex -0.25 0.433012 0
      vertex -1.09927 0.733992 14.2597
    endloop
  endfacet
  facet normal -0.134277 0.990522 -0.0289042
    outer loop
      vertex -0.25 0.433012 0
      vertex -1.04991 0.740456 14.2519
      vertex -1 0.747146 14.2493
    endloop
  endfacet
  facet normal -0.293905 0.954699 -0.0465722
    outer loop
      vertex -0.25 0.433012 0
      vertex -1.9497 0.63662 14.9002
      vertex -1.93406 0.63662 14.8015
    endloop
  endfacet
  facet normal 0.499789 0.86566 0.0290691
    outer loop
      vertex -0.0503006 0.63662 15.0998
      vertex -0.5 0.866025 16
      vertex 1 0 16
    endloop
  endfacet
  facet normal 0.501592 0.864705 0.0262903
    outer loop
      vertex -0.0450697 0.63662 15
      vertex -0.0503006 0.63662 15.0998
      vertex 1 0 16
    endloop
  endfacet
  facet normal -0.270529 0.65546 0.705115
    outer loop
      vertex -0.5 0.866025 16
      vertex -1.3884 0.63662 15.8724
      vertex -1.29509 0.63662 15.9082
    endloop
  endfacet
  facet normal -0.965961 0 0.258689
    outer loop
      vertex -1.93406 -0.63662 15.1985
      vertex -1.90819 0.63662 15.2951
      vertex -1.93406 0.63662 15.1985
    endloop
  endfacet
  facet normal -0.965961 0 0.258689
    outer loop
      vertex -1.90819 0.63662 15.2951
      vertex -1.93406 -0.63662 15.1985
      vertex -1.90819 -0.63662 15.2951
    endloop
  endfacet
  facet normal -0.172806 0.984575 0.0273828
    outer loop
      vertex -0.5 0.866025 16
      vertex -1.9497 0.63662 15.0998
      vertex -1.93406 0.63662 15.1985
    endloop
  endfacet
  facet normal -0.184658 0.981558 0.0494524
    outer loop
      vertex -0.5 0.866025 16
      vertex -1.93406 0.63662 15.1985
      vertex -1.90819 0.63662 15.2951
    endloop
  endfacet
  facet normal -0.197117 -0.977455 0.0756777
    outer loop
      vertex -1.87237 -0.63662 15.3884
      vertex -1.90819 -0.63662 15.2951
      vertex -0.5 -0.866025 16
    endloop
  endfacet
  facet normal -0.0835652 0 0.996502
    outer loop
      vertex -1.09982 0.63662 15.9497
      vertex -0.5 -0.866025 16
      vertex -0.5 0.866025 16
    endloop
  endfacet
  facet normal -0.0835652 0 0.996502
    outer loop
      vertex -0.5 -0.866025 16
      vertex -1.09982 0.63662 15.9497
      vertex -1.09982 -0.63662 15.9497
    endloop
  endfacet
  facet normal -0.259094 0 0.965852
    outer loop
      vertex -1.29509 0.63662 15.9082
      vertex -1.19854 -0.63662 15.9341
      vertex -1.19854 0.63662 15.9341
    endloop
  endfacet
  facet normal -0.259094 0 0.965852
    outer loop
      vertex -1.19854 -0.63662 15.9341
      vertex -1.29509 0.63662 15.9082
      vertex -1.29509 -0.63662 15.9082
    endloop
  endfacet
  facet normal -0.252474 -0.934104 0.252403
    outer loop
      vertex -1.63897 -0.63662 15.7097
      vertex -1.70965 -0.63662 15.639
      vertex -0.5 -0.866025 16
    endloop
  endfacet
  facet normal -0.161415 0.98685 0.00845892
    outer loop
      vertex -0.5 0.866025 16
      vertex -1.95493 0.63662 15
      vertex -1.9497 0.63662 15.0998
    endloop
  endfacet
  facet normal -0.172806 -0.984575 0.0273828
    outer loop
      vertex -1.93406 -0.63662 15.1985
      vertex -1.9497 -0.63662 15.0998
      vertex -0.5 -0.866025 16
    endloop
  endfacet
  facet normal -0.707207 0 0.707007
    outer loop
      vertex -1.70965 -0.63662 15.639
      vertex -1.63897 0.63662 15.7097
      vertex -1.70965 0.63662 15.639
    endloop
  endfacet
  facet normal -0.707207 0 0.707007
    outer loop
      vertex -1.63897 0.63662 15.7097
      vertex -1.70965 -0.63662 15.639
      vertex -1.63897 -0.63662 15.7097
    endloop
  endfacet
  facet normal -0.197117 0.977455 0.0756777
    outer loop
      vertex -0.5 0.866025 16
      vertex -1.90819 0.63662 15.2951
      vertex -1.87237 0.63662 15.3884
    endloop
  endfacet
  facet normal -0.281887 0.784069 0.55297
    outer loop
      vertex -0.5 0.866025 16
      vertex -1.47746 0.63662 15.827
      vertex -1.3884 0.63662 15.8724
    endloop
  endfacet
  facet normal -0.454163 0 0.890919
    outer loop
      vertex -1.47746 0.63662 15.827
      vertex -1.3884 -0.63662 15.8724
      vertex -1.3884 0.63662 15.8724
    endloop
  endfacet
  facet normal -0.454163 0 0.890919
    outer loop
      vertex -1.3884 -0.63662 15.8724
      vertex -1.47746 0.63662 15.827
      vertex -1.47746 -0.63662 15.827
    endloop
  endfacet
  facet normal -0.153299 -0.188119 0.970109
    outer loop
      vertex -1.09982 -0.63662 15.9497
      vertex -1.19854 -0.63662 15.9341
      vertex -0.5 -0.866025 16
    endloop
  endfacet
  facet normal -0.156086 0 0.987743
    outer loop
      vertex -1.19854 0.63662 15.9341
      vertex -1.09982 -0.63662 15.9497
      vertex -1.09982 0.63662 15.9497
    endloop
  endfacet
  facet normal -0.156086 0 0.987743
    outer loop
      vertex -1.09982 -0.63662 15.9497
      vertex -1.19854 0.63662 15.9341
      vertex -1.19854 -0.63662 15.9341
    endloop
  endfacet
  facet normal -0.153299 0.188119 0.970109
    outer loop
      vertex -0.5 0.866025 16
      vertex -1.19854 0.63662 15.9341
      vertex -1.09982 0.63662 15.9497
    endloop
  endfacet
  facet normal -0.230671 0.455378 0.859896
    outer loop
      vertex -0.5 0.866025 16
      vertex -1.29509 0.63662 15.9082
      vertex -1.19854 0.63662 15.9341
    endloop
  endfacet
  facet normal -0.281887 -0.784069 0.55297
    outer loop
      vertex -1.3884 -0.63662 15.8724
      vertex -1.47746 -0.63662 15.827
      vertex -0.5 -0.866025 16
    endloop
  endfacet
  facet normal -0.252474 0.934104 0.252403
    outer loop
      vertex -0.5 0.866025 16
      vertex -1.70965 0.63662 15.639
      vertex -1.63897 0.63662 15.7097
    endloop
  endfacet
  facet normal -0.150455 0.988585 -0.00788458
    outer loop
      vertex -1.9497 0.63662 14.9002
      vertex -1.95493 0.63662 15
      vertex -0.5 0.866025 16
    endloop
  endfacet
  facet normal -0.987677 0 0.156507
    outer loop
      vertex -1.9497 -0.63662 15.0998
      vertex -1.93406 0.63662 15.1985
      vertex -1.9497 0.63662 15.0998
    endloop
  endfacet
  facet normal -0.987677 0 0.156507
    outer loop
      vertex -1.93406 0.63662 15.1985
      vertex -1.9497 -0.63662 15.0998
      vertex -1.93406 -0.63662 15.1985
    endloop
  endfacet
  facet normal -0.99863 0 0.052333
    outer loop
      vertex -1.95493 -0.63662 15
      vertex -1.9497 0.63662 15.0998
      vertex -1.95493 0.63662 15
    endloop
  endfacet
  facet normal -0.99863 0 0.052333
    outer loop
      vertex -1.9497 0.63662 15.0998
      vertex -1.95493 -0.63662 15
      vertex -1.9497 -0.63662 15.0998
    endloop
  endfacet
  facet normal -0.184658 -0.981558 0.0494524
    outer loop
      vertex -1.90819 -0.63662 15.2951
      vertex -1.93406 -0.63662 15.1985
      vertex -0.5 -0.866025 16
    endloop
  endfacet
  facet normal -0.223866 -0.963708 0.145433
    outer loop
      vertex -1.77255 -0.63662 15.5613
      vertex -1.82699 -0.63662 15.4775
      vertex -0.5 -0.866025 16
    endloop
  endfacet
  facet normal -0.838581 0 0.544777
    outer loop
      vertex -1.82699 -0.63662 15.4775
      vertex -1.77255 0.63662 15.5613
      vertex -1.82699 0.63662 15.4775
    endloop
  endfacet
  facet normal -0.838581 0 0.544777
    outer loop
      vertex -1.77255 0.63662 15.5613
      vertex -1.82699 -0.63662 15.4775
      vertex -1.77255 -0.63662 15.5613
    endloop
  endfacet
  facet normal -0.238041 -0.951947 0.1927
    outer loop
      vertex -1.70965 -0.63662 15.639
      vertex -1.77255 -0.63662 15.5613
      vertex -0.5 -0.866025 16
    endloop
  endfacet
  facet normal -0.891082 0 0.453842
    outer loop
      vertex -1.87237 -0.63662 15.3884
      vertex -1.82699 0.63662 15.4775
      vertex -1.87237 0.63662 15.3884
    endloop
  endfacet
  facet normal -0.891082 0 0.453842
    outer loop
      vertex -1.82699 0.63662 15.4775
      vertex -1.87237 -0.63662 15.3884
      vertex -1.82699 -0.63662 15.4775
    endloop
  endfacet
  facet normal -0.210143 0.971795 0.107029
    outer loop
      vertex -0.5 0.866025 16
      vertex -1.87237 0.63662 15.3884
      vertex -1.82699 0.63662 15.4775
    endloop
  endfacet
  facet normal -0.629296 0 0.777166
    outer loop
      vertex -1.63897 0.63662 15.7097
      vertex -1.56129 -0.63662 15.7726
      vertex -1.56129 0.63662 15.7726
    endloop
  endfacet
  facet normal -0.629296 0 0.777166
    outer loop
      vertex -1.56129 -0.63662 15.7726
      vertex -1.63897 0.63662 15.7097
      vertex -1.63897 -0.63662 15.7097
    endloop
  endfacet
  facet normal -0.266318 -0.906037 0.328896
    outer loop
      vertex -1.56129 -0.63662 15.7726
      vertex -1.63897 -0.63662 15.7097
      vertex -0.5 -0.866025 16
    endloop
  endfacet
  facet normal -0.270529 -0.65546 0.705115
    outer loop
      vertex -1.29509 -0.63662 15.9082
      vertex -1.3884 -0.63662 15.8724
      vertex -0.5 -0.866025 16
    endloop
  endfacet
  facet normal -0.358208 0 0.933642
    outer loop
      vertex -1.3884 0.63662 15.8724
      vertex -1.29509 -0.63662 15.9082
      vertex -1.29509 0.63662 15.9082
    endloop
  endfacet
  facet normal -0.358208 0 0.933642
    outer loop
      vertex -1.29509 -0.63662 15.9082
      vertex -1.3884 0.63662 15.8724
      vertex -1.3884 -0.63662 15.8724
    endloop
  endfacet
  facet normal -0.230671 -0.455378 0.859896
    outer loop
      vertex -1.19854 -0.63662 15.9341
      vertex -1.29509 -0.63662 15.9082
      vertex -0.5 -0.866025 16
    endloop
  endfacet
  facet normal -0.544359 0 0.838853
    outer loop
      vertex -1.56129 0.63662 15.7726
      vertex -1.47746 -0.63662 15.827
      vertex -1.47746 0.63662 15.827
    endloop
  endfacet
  facet normal -0.544359 0 0.838853
    outer loop
      vertex -1.47746 -0.63662 15.827
      vertex -1.56129 0.63662 15.7726
      vertex -1.56129 -0.63662 15.7726
    endloop
  endfacet
  facet normal -0.277597 0.860203 0.427775
    outer loop
      vertex -0.5 0.866025 16
      vertex -1.56129 0.63662 15.7726
      vertex -1.47746 0.63662 15.827
    endloop
  endfacet
  facet normal -0.777245 0 0.629198
    outer loop
      vertex -1.77255 -0.63662 15.5613
      vertex -1.70965 0.63662 15.639
      vertex -1.77255 0.63662 15.5613
    endloop
  endfacet
  facet normal -0.777245 0 0.629198
    outer loop
      vertex -1.70965 0.63662 15.639
      vertex -1.77255 -0.63662 15.5613
      vertex -1.70965 -0.63662 15.639
    endloop
  endfacet
  facet normal -0.238041 0.951947 0.1927
    outer loop
      vertex -0.5 0.866025 16
      vertex -1.77255 0.63662 15.5613
      vertex -1.70965 0.63662 15.639
    endloop
  endfacet
  facet normal -0.998629 0 -0.052353
    outer loop
      vertex -0.522534 -0.825814 14.7268
      vertex -0.52515 0.826916 14.7767
      vertex -0.522534 0.825814 14.7268
    endloop
  endfacet
  facet normal -0.998629 -0 -0.052353
    outer loop
      vertex -0.52515 0.826916 14.7767
      vertex -0.522534 -0.825814 14.7268
      vertex -0.52515 -0.826916 14.7767
    endloop
  endfacet
  facet normal -0.987655 0 -0.156643
    outer loop
      vertex -0.52515 -0.826916 14.7767
      vertex -0.532969 0.827297 14.826
      vertex -0.52515 0.826916 14.7767
    endloop
  endfacet
  facet normal -0.987655 -0 -0.156643
    outer loop
      vertex -0.532969 0.827297 14.826
      vertex -0.52515 -0.826916 14.7767
      vertex -0.532969 -0.827297 14.826
    endloop
  endfacet
  facet normal 0.998635 0 -0.0522332
    outer loop
      vertex -1.47485 0.698156 14.7767
      vertex -1.47746 -0.696345 14.7268
      vertex -1.47746 0.696345 14.7268
    endloop
  endfacet
  facet normal 0.998635 0 -0.0522332
    outer loop
      vertex -1.47746 -0.696345 14.7268
      vertex -1.47485 0.698156 14.7767
      vertex -1.47485 -0.698156 14.7767
    endloop
  endfacet
  facet normal 0.0520232 0 -0.998646
    outer loop
      vertex -1.04991 -0.76817 15.2016
      vertex -1 0.775013 15.2042
      vertex -1 -0.775013 15.2042
    endloop
  endfacet
  facet normal 0.0520232 0 -0.998646
    outer loop
      vertex -1 0.775013 15.2042
      vertex -1.04991 -0.76817 15.2016
      vertex -1.04991 0.76817 15.2016
    endloop
  endfacet
  facet normal -0.707716 0 -0.706497
    outer loop
      vertex -0.645174 0.81851 15.0462
      vertex -0.680513 -0.81475 15.0816
      vertex -0.680513 0.81475 15.0816
    endloop
  endfacet
  facet normal -0.707716 0 -0.706497
    outer loop
      vertex -0.680513 -0.81475 15.0816
      vertex -0.645174 0.81851 15.0462
      vertex -0.645174 -0.81851 15.0462
    endloop
  endfacet
  facet normal 0.707706 0 -0.706507
    outer loop
      vertex -1.31949 0.728118 15.0816
      vertex -1.35483 -0.722296 15.0462
      vertex -1.35483 0.722296 15.0462
    endloop
  endfacet
  facet normal 0.707706 0 -0.706507
    outer loop
      vertex -1.35483 -0.722296 15.0462
      vertex -1.31949 0.728118 15.0816
      vertex -1.31949 -0.728118 15.0816
    endloop
  endfacet
  facet normal 0.452572 0 -0.891728
    outer loop
      vertex -1.23873 -0.740779 15.1403
      vertex -1.1942 0.747478 15.1629
      vertex -1.1942 -0.747478 15.1629
    endloop
  endfacet
  facet normal 0.452572 0 -0.891728
    outer loop
      vertex -1.1942 0.747478 15.1629
      vertex -1.23873 -0.740779 15.1403
      vertex -1.23873 0.740779 15.1403
    endloop
  endfacet
  facet normal -0.0520232 0 0.998646
    outer loop
      vertex -1 0.747146 14.2493
      vertex -0.95009 -0.75399 14.2519
      vertex -0.95009 0.75399 14.2519
    endloop
  endfacet
  facet normal -0.0520232 0 0.998646
    outer loop
      vertex -0.95009 -0.75399 14.2519
      vertex -1 0.747146 14.2493
      vertex -1 -0.747146 14.2493
    endloop
  endfacet
  facet normal -0.890884 0 -0.454231
    outer loop
      vertex -0.563814 0.825885 14.921
      vertex -0.586503 -0.824108 14.9655
      vertex -0.586503 0.824108 14.9655
    endloop
  endfacet
  facet normal -0.890884 0 -0.454231
    outer loop
      vertex -0.586503 -0.824108 14.9655
      vertex -0.563814 0.825885 14.921
      vertex -0.563814 -0.825885 14.921
    endloop
  endfacet
  facet normal -0.35993 0 -0.932979
    outer loop
      vertex -0.852455 -0.794335 15.1809
      vertex -0.805797 0.800138 15.1629
      vertex -0.805797 -0.800138 15.1629
    endloop
  endfacet
  facet normal -0.35993 0 -0.932979
    outer loop
      vertex -0.805797 0.800138 15.1629
      vertex -0.852455 -0.794335 15.1809
      vertex -0.852455 0.794335 15.1809
    endloop
  endfacet
  facet normal 0.838581 0 -0.544777
    outer loop
      vertex -1.38628 0.716898 15.0074
      vertex -1.4135 -0.711985 14.9655
      vertex -1.4135 0.711985 14.9655
    endloop
  endfacet
  facet normal 0.838581 0 -0.544777
    outer loop
      vertex -1.4135 -0.711985 14.9655
      vertex -1.38628 0.716898 15.0074
      vertex -1.38628 -0.716898 15.0074
    endloop
  endfacet
  facet normal 0.628691 0 -0.777655
    outer loop
      vertex -1.31949 -0.728118 15.0816
      vertex -1.28065 0.734302 15.113
      vertex -1.28065 -0.734302 15.113
    endloop
  endfacet
  facet normal 0.628691 0 -0.777655
    outer loop
      vertex -1.28065 0.734302 15.113
      vertex -1.31949 -0.728118 15.0816
      vertex -1.31949 0.728118 15.0816
    endloop
  endfacet
  facet normal 0.258186 0 -0.966095
    outer loop
      vertex -1.14754 -0.754327 15.1809
      vertex -1.09927 0.761249 15.1938
      vertex -1.09927 -0.761249 15.1938
    endloop
  endfacet
  facet normal 0.258186 0 -0.966095
    outer loop
      vertex -1.09927 0.761249 15.1938
      vertex -1.14754 -0.754327 15.1809
      vertex -1.14754 0.754327 15.1809
    endloop
  endfacet
  facet normal -0.707716 0 0.706497
    outer loop
      vertex -0.680513 0.794041 14.3719
      vertex -0.645174 -0.799864 14.4073
      vertex -0.645174 0.799864 14.4073
    endloop
  endfacet
  facet normal -0.707716 0 0.706497
    outer loop
      vertex -0.645174 -0.799864 14.4073
      vertex -0.680513 0.794041 14.3719
      vertex -0.680513 -0.794041 14.3719
    endloop
  endfacet
  facet normal -0.965966 0 0.258671
    outer loop
      vertex -0.545903 -0.81834 14.5792
      vertex -0.532969 0.821503 14.6275
      vertex -0.545903 0.81834 14.5792
    endloop
  endfacet
  facet normal -0.965966 0 0.258671
    outer loop
      vertex -0.532969 0.821503 14.6275
      vertex -0.545903 -0.81834 14.5792
      vertex -0.532969 -0.821503 14.6275
    endloop
  endfacet
  facet normal 0.776848 -0 0.629688
    outer loop
      vertex -1.38628 -0.700519 14.4461
      vertex -1.35483 0.703649 14.4073
      vertex -1.38628 0.700519 14.4461
    endloop
  endfacet
  facet normal 0.776848 0 0.629688
    outer loop
      vertex -1.35483 0.703649 14.4073
      vertex -1.38628 -0.700519 14.4461
      vertex -1.35483 -0.703649 14.4073
    endloop
  endfacet
  facet normal 0.838581 -0 0.544777
    outer loop
      vertex -1.4135 -0.698051 14.488
      vertex -1.38628 0.700519 14.4461
      vertex -1.4135 0.698051 14.488
    endloop
  endfacet
  facet normal 0.838581 0 0.544777
    outer loop
      vertex -1.38628 0.700519 14.4461
      vertex -1.4135 -0.698051 14.488
      vertex -1.38628 -0.700519 14.4461
    endloop
  endfacet
  facet normal 0.998635 0 0.0522332
    outer loop
      vertex -1.47746 0.696345 14.7268
      vertex -1.47485 -0.695243 14.6769
      vertex -1.47485 0.695243 14.6769
    endloop
  endfacet
  facet normal 0.998635 0 0.0522332
    outer loop
      vertex -1.47485 -0.695243 14.6769
      vertex -1.47746 0.696345 14.7268
      vertex -1.47746 -0.696345 14.7268
    endloop
  endfacet
  facet normal -0.965966 0 -0.258671
    outer loop
      vertex -0.532969 0.827297 14.826
      vertex -0.545903 -0.826952 14.8743
      vertex -0.545903 0.826952 14.8743
    endloop
  endfacet
  facet normal -0.965966 0 -0.258671
    outer loop
      vertex -0.545903 -0.826952 14.8743
      vertex -0.532969 0.827297 14.826
      vertex -0.532969 -0.827297 14.826
    endloop
  endfacet
  facet normal -0.933684 0 -0.358099
    outer loop
      vertex -0.545903 0.826952 14.8743
      vertex -0.563814 -0.825885 14.921
      vertex -0.563814 0.825885 14.921
    endloop
  endfacet
  facet normal -0.933684 0 -0.358099
    outer loop
      vertex -0.563814 -0.825885 14.921
      vertex -0.545903 0.826952 14.8743
      vertex -0.545903 -0.826952 14.8743
    endloop
  endfacet
  facet normal -0.776839 0 -0.6297
    outer loop
      vertex -0.613723 0.821641 15.0074
      vertex -0.645174 -0.81851 15.0462
      vertex -0.645174 0.81851 15.0462
    endloop
  endfacet
  facet normal -0.776839 0 -0.6297
    outer loop
      vertex -0.645174 -0.81851 15.0462
      vertex -0.613723 0.821641 15.0074
      vertex -0.613723 -0.821641 15.0074
    endloop
  endfacet
  facet normal -0.156083 0 -0.987744
    outer loop
      vertex -0.95009 -0.781703 15.2016
      vertex -0.900729 0.788168 15.1938
      vertex -0.900729 -0.788168 15.1938
    endloop
  endfacet
  facet normal -0.156083 0 -0.987744
    outer loop
      vertex -0.900729 0.788168 15.1938
      vertex -0.95009 -0.781703 15.2016
      vertex -0.95009 0.781703 15.2016
    endloop
  endfacet
  facet normal 0.933624 0 -0.358256
    outer loop
      vertex -1.43618 0.707609 14.921
      vertex -1.4541 -0.703819 14.8743
      vertex -1.4541 0.703819 14.8743
    endloop
  endfacet
  facet normal 0.933624 0 -0.358256
    outer loop
      vertex -1.4541 -0.703819 14.8743
      vertex -1.43618 0.707609 14.921
      vertex -1.43618 -0.707609 14.921
    endloop
  endfacet
  facet normal 0.890957 0 -0.454088
    outer loop
      vertex -1.4135 0.711985 14.9655
      vertex -1.43618 -0.707609 14.921
      vertex -1.43618 0.707609 14.921
    endloop
  endfacet
  facet normal 0.890957 0 -0.454088
    outer loop
      vertex -1.43618 -0.707609 14.921
      vertex -1.4135 0.711985 14.9655
      vertex -1.4135 -0.711985 14.9655
    endloop
  endfacet
  facet normal 0.987652 0 -0.156662
    outer loop
      vertex -1.46703 0.700657 14.826
      vertex -1.47485 -0.698156 14.7767
      vertex -1.47485 0.698156 14.7767
    endloop
  endfacet
  facet normal 0.987652 0 -0.156662
    outer loop
      vertex -1.47485 -0.698156 14.7767
      vertex -1.46703 0.700657 14.826
      vertex -1.46703 -0.700657 14.826
    endloop
  endfacet
  facet normal 0.156086 0 -0.987743
    outer loop
      vertex -1.09927 -0.761249 15.1938
      vertex -1.04991 0.76817 15.2016
      vertex -1.04991 -0.76817 15.2016
    endloop
  endfacet
  facet normal 0.156086 0 -0.987743
    outer loop
      vertex -1.04991 0.76817 15.2016
      vertex -1.09927 -0.761249 15.1938
      vertex -1.09927 0.761249 15.1938
    endloop
  endfacet
  facet normal -0.260032 0 0.9656
    outer loop
      vertex -0.900729 0.76091 14.2597
      vertex -0.852455 -0.767833 14.2727
      vertex -0.852455 0.767833 14.2727
    endloop
  endfacet
  facet normal -0.260032 0 0.9656
    outer loop
      vertex -0.852455 -0.767833 14.2727
      vertex -0.900729 0.76091 14.2597
      vertex -0.900729 -0.76091 14.2597
    endloop
  endfacet
  facet normal -0.628691 0 0.777655
    outer loop
      vertex -0.719353 0.787858 14.3405
      vertex -0.680513 -0.794041 14.3719
      vertex -0.680513 0.794041 14.3719
    endloop
  endfacet
  facet normal -0.628691 0 0.777655
    outer loop
      vertex -0.680513 -0.794041 14.3719
      vertex -0.719353 0.787858 14.3405
      vertex -0.719353 -0.787858 14.3405
    endloop
  endfacet
  facet normal -0.838581 0 0.544777
    outer loop
      vertex -0.613723 -0.805261 14.4461
      vertex -0.586503 0.810175 14.488
      vertex -0.613723 0.805261 14.4461
    endloop
  endfacet
  facet normal -0.838581 0 0.544777
    outer loop
      vertex -0.586503 0.810175 14.488
      vertex -0.613723 -0.805261 14.4461
      vertex -0.586503 -0.810175 14.488
    endloop
  endfacet
  facet normal -0.891296 0 0.453422
    outer loop
      vertex -0.586503 -0.810175 14.488
      vertex -0.563814 0.814551 14.5326
      vertex -0.586503 0.810175 14.488
    endloop
  endfacet
  facet normal -0.891296 0 0.453422
    outer loop
      vertex -0.563814 0.814551 14.5326
      vertex -0.586503 -0.810175 14.488
      vertex -0.563814 -0.814551 14.5326
    endloop
  endfacet
  facet normal 0.707706 0 0.706507
    outer loop
      vertex -1.35483 0.703649 14.4073
      vertex -1.31949 -0.70741 14.3719
      vertex -1.31949 0.70741 14.3719
    endloop
  endfacet
  facet normal 0.707706 0 0.706507
    outer loop
      vertex -1.31949 -0.70741 14.3719
      vertex -1.35483 0.703649 14.4073
      vertex -1.35483 -0.703649 14.4073
    endloop
  endfacet
  facet normal 0.628691 0 0.777655
    outer loop
      vertex -1.31949 0.70741 14.3719
      vertex -1.28065 -0.711757 14.3405
      vertex -1.28065 0.711757 14.3405
    endloop
  endfacet
  facet normal 0.628691 0 0.777655
    outer loop
      vertex -1.28065 -0.711757 14.3405
      vertex -1.31949 0.70741 14.3719
      vertex -1.31949 -0.70741 14.3719
    endloop
  endfacet
  facet normal 0.358174 0 0.933655
    outer loop
      vertex -1.1942 0.722021 14.2906
      vertex -1.14754 -0.727824 14.2727
      vertex -1.14754 0.727824 14.2727
    endloop
  endfacet
  facet normal 0.358174 0 0.933655
    outer loop
      vertex -1.14754 -0.727824 14.2727
      vertex -1.1942 0.722021 14.2906
      vertex -1.1942 -0.722021 14.2906
    endloop
  endfacet
  facet normal 0.933366 -0 0.358925
    outer loop
      vertex -1.4541 -0.695208 14.5792
      vertex -1.43618 0.696275 14.5326
      vertex -1.4541 0.695208 14.5792
    endloop
  endfacet
  facet normal 0.933366 0 0.358925
    outer loop
      vertex -1.43618 0.696275 14.5326
      vertex -1.4541 -0.695208 14.5792
      vertex -1.43618 -0.696275 14.5326
    endloop
  endfacet
  facet normal -0.838581 0 -0.544777
    outer loop
      vertex -0.586503 0.824108 14.9655
      vertex -0.613723 -0.821641 15.0074
      vertex -0.613723 0.821641 15.0074
    endloop
  endfacet
  facet normal -0.838581 0 -0.544777
    outer loop
      vertex -0.613723 -0.821641 15.0074
      vertex -0.586503 0.824108 14.9655
      vertex -0.586503 -0.824108 14.9655
    endloop
  endfacet
  facet normal -0.258166 0 -0.966101
    outer loop
      vertex -0.900729 -0.788168 15.1938
      vertex -0.852455 0.794335 15.1809
      vertex -0.852455 -0.794335 15.1809
    endloop
  endfacet
  facet normal -0.258166 0 -0.966101
    outer loop
      vertex -0.852455 0.794335 15.1809
      vertex -0.900729 -0.788168 15.1938
      vertex -0.900729 0.788168 15.1938
    endloop
  endfacet
  facet normal -0.0520232 0 -0.998646
    outer loop
      vertex -1 -0.775013 15.2042
      vertex -0.95009 0.781703 15.2016
      vertex -0.95009 -0.781703 15.2016
    endloop
  endfacet
  facet normal -0.0520232 0 -0.998646
    outer loop
      vertex -0.95009 0.781703 15.2016
      vertex -1 -0.775013 15.2042
      vertex -1 0.775013 15.2042
    endloop
  endfacet
  facet normal -0.452572 0 -0.891728
    outer loop
      vertex -0.805797 -0.800138 15.1629
      vertex -0.761267 0.805514 15.1403
      vertex -0.761267 -0.805514 15.1403
    endloop
  endfacet
  facet normal -0.452572 0 -0.891728
    outer loop
      vertex -0.761267 0.805514 15.1403
      vertex -0.805797 -0.800138 15.1629
      vertex -0.805797 0.800138 15.1629
    endloop
  endfacet
  facet normal -0.628691 0 -0.777655
    outer loop
      vertex -0.719353 -0.810402 15.113
      vertex -0.680513 0.81475 15.0816
      vertex -0.680513 -0.81475 15.0816
    endloop
  endfacet
  facet normal -0.628691 0 -0.777655
    outer loop
      vertex -0.680513 0.81475 15.0816
      vertex -0.719353 -0.810402 15.113
      vertex -0.719353 0.810402 15.113
    endloop
  endfacet
  facet normal -0.545774 0 -0.837933
    outer loop
      vertex -0.761267 -0.805514 15.1403
      vertex -0.719353 0.810402 15.113
      vertex -0.719353 -0.810402 15.113
    endloop
  endfacet
  facet normal -0.545774 0 -0.837933
    outer loop
      vertex -0.719353 0.810402 15.113
      vertex -0.761267 -0.805514 15.1403
      vertex -0.761267 0.805514 15.1403
    endloop
  endfacet
  facet normal 0.776848 0 -0.629688
    outer loop
      vertex -1.35483 0.722296 15.0462
      vertex -1.38628 -0.716898 15.0074
      vertex -1.38628 0.716898 15.0074
    endloop
  endfacet
  facet normal 0.776848 0 -0.629688
    outer loop
      vertex -1.38628 -0.716898 15.0074
      vertex -1.35483 0.722296 15.0462
      vertex -1.35483 -0.722296 15.0462
    endloop
  endfacet
  facet normal 0.965986 0 -0.258596
    outer loop
      vertex -1.4541 0.703819 14.8743
      vertex -1.46703 -0.700657 14.826
      vertex -1.46703 0.700657 14.826
    endloop
  endfacet
  facet normal 0.965986 0 -0.258596
    outer loop
      vertex -1.46703 -0.700657 14.826
      vertex -1.4541 0.703819 14.8743
      vertex -1.4541 -0.703819 14.8743
    endloop
  endfacet
  facet normal 0.545719 0 -0.837968
    outer loop
      vertex -1.28065 -0.734302 15.113
      vertex -1.23873 0.740779 15.1403
      vertex -1.23873 -0.740779 15.1403
    endloop
  endfacet
  facet normal 0.545719 0 -0.837968
    outer loop
      vertex -1.23873 0.740779 15.1403
      vertex -1.28065 -0.734302 15.113
      vertex -1.28065 0.734302 15.113
    endloop
  endfacet
  facet normal 0.359917 0 -0.932984
    outer loop
      vertex -1.1942 -0.747478 15.1629
      vertex -1.14754 0.754327 15.1809
      vertex -1.14754 -0.754327 15.1809
    endloop
  endfacet
  facet normal 0.359917 0 -0.932984
    outer loop
      vertex -1.14754 0.754327 15.1809
      vertex -1.1942 -0.747478 15.1629
      vertex -1.1942 0.747478 15.1629
    endloop
  endfacet
  facet normal -0.156083 0 0.987744
    outer loop
      vertex -0.95009 0.75399 14.2519
      vertex -0.900729 -0.76091 14.2597
      vertex -0.900729 0.76091 14.2597
    endloop
  endfacet
  facet normal -0.156083 0 0.987744
    outer loop
      vertex -0.900729 -0.76091 14.2597
      vertex -0.95009 0.75399 14.2519
      vertex -0.95009 -0.75399 14.2519
    endloop
  endfacet
  facet normal -0.358188 0 0.93365
    outer loop
      vertex -0.852455 0.767833 14.2727
      vertex -0.805797 -0.774681 14.2906
      vertex -0.805797 0.774681 14.2906
    endloop
  endfacet
  facet normal -0.358188 0 0.93365
    outer loop
      vertex -0.805797 -0.774681 14.2906
      vertex -0.852455 0.767833 14.2727
      vertex -0.852455 -0.767833 14.2727
    endloop
  endfacet
  facet normal -0.454163 0 0.890919
    outer loop
      vertex -0.805797 0.774681 14.2906
      vertex -0.761267 -0.781381 14.3133
      vertex -0.761267 0.781381 14.3133
    endloop
  endfacet
  facet normal -0.454163 0 0.890919
    outer loop
      vertex -0.761267 -0.781381 14.3133
      vertex -0.805797 0.774681 14.2906
      vertex -0.805797 -0.774681 14.2906
    endloop
  endfacet
  facet normal -0.544368 0 0.838847
    outer loop
      vertex -0.761267 0.781381 14.3133
      vertex -0.719353 -0.787858 14.3405
      vertex -0.719353 0.787858 14.3405
    endloop
  endfacet
  facet normal -0.544368 0 0.838847
    outer loop
      vertex -0.719353 -0.787858 14.3405
      vertex -0.761267 0.781381 14.3133
      vertex -0.761267 -0.781381 14.3133
    endloop
  endfacet
  facet normal -0.776839 0 0.6297
    outer loop
      vertex -0.645174 -0.799864 14.4073
      vertex -0.613723 0.805261 14.4461
      vertex -0.645174 0.799864 14.4073
    endloop
  endfacet
  facet normal -0.776839 0 0.6297
    outer loop
      vertex -0.613723 0.805261 14.4461
      vertex -0.645174 -0.799864 14.4073
      vertex -0.613723 -0.805261 14.4461
    endloop
  endfacet
  facet normal -0.933427 0 0.358768
    outer loop
      vertex -0.563814 -0.814551 14.5326
      vertex -0.545903 0.81834 14.5792
      vertex -0.563814 0.814551 14.5326
    endloop
  endfacet
  facet normal -0.933427 0 0.358768
    outer loop
      vertex -0.545903 0.81834 14.5792
      vertex -0.563814 -0.814551 14.5326
      vertex -0.545903 -0.81834 14.5792
    endloop
  endfacet
  facet normal -0.987704 0 0.156333
    outer loop
      vertex -0.532969 -0.821503 14.6275
      vertex -0.52515 0.824003 14.6769
      vertex -0.532969 0.821503 14.6275
    endloop
  endfacet
  facet normal -0.987704 0 0.156333
    outer loop
      vertex -0.52515 0.824003 14.6769
      vertex -0.532969 -0.821503 14.6275
      vertex -0.52515 -0.824003 14.6769
    endloop
  endfacet
  facet normal -0.998629 0 0.052353
    outer loop
      vertex -0.52515 -0.824003 14.6769
      vertex -0.522534 0.825814 14.7268
      vertex -0.52515 0.824003 14.6769
    endloop
  endfacet
  facet normal -0.998629 0 0.052353
    outer loop
      vertex -0.522534 0.825814 14.7268
      vertex -0.52515 -0.824003 14.6769
      vertex -0.522534 -0.825814 14.7268
    endloop
  endfacet
  facet normal 0.544313 0 0.838882
    outer loop
      vertex -1.28065 0.711757 14.3405
      vertex -1.23873 -0.716646 14.3133
      vertex -1.23873 0.716646 14.3133
    endloop
  endfacet
  facet normal 0.544313 0 0.838882
    outer loop
      vertex -1.23873 -0.716646 14.3133
      vertex -1.28065 0.711757 14.3405
      vertex -1.28065 -0.711757 14.3405
    endloop
  endfacet
  facet normal 0.454163 0 0.890919
    outer loop
      vertex -1.23873 0.716646 14.3133
      vertex -1.1942 -0.722021 14.2906
      vertex -1.1942 0.722021 14.2906
    endloop
  endfacet
  facet normal 0.454163 0 0.890919
    outer loop
      vertex -1.1942 -0.722021 14.2906
      vertex -1.23873 0.716646 14.3133
      vertex -1.23873 -0.716646 14.3133
    endloop
  endfacet
  facet normal 0.260052 0 0.965595
    outer loop
      vertex -1.14754 0.727824 14.2727
      vertex -1.09927 -0.733992 14.2597
      vertex -1.09927 0.733992 14.2597
    endloop
  endfacet
  facet normal 0.260052 0 0.965595
    outer loop
      vertex -1.09927 -0.733992 14.2597
      vertex -1.14754 0.727824 14.2727
      vertex -1.14754 -0.727824 14.2727
    endloop
  endfacet
  facet normal 0.156086 0 0.987743
    outer loop
      vertex -1.09927 0.733992 14.2597
      vertex -1.04991 -0.740456 14.2519
      vertex -1.04991 0.740456 14.2519
    endloop
  endfacet
  facet normal 0.156086 0 0.987743
    outer loop
      vertex -1.04991 -0.740456 14.2519
      vertex -1.09927 0.733992 14.2597
      vertex -1.09927 -0.733992 14.2597
    endloop
  endfacet
  facet normal 0.0520232 0 0.998646
    outer loop
      vertex -1.04991 0.740456 14.2519
      vertex -1 -0.747146 14.2493
      vertex -1 0.747146 14.2493
    endloop
  endfacet
  facet normal 0.0520232 0 0.998646
    outer loop
      vertex -1 -0.747146 14.2493
      vertex -1.04991 0.740456 14.2519
      vertex -1.04991 -0.740456 14.2519
    endloop
  endfacet
  facet normal 0.891369 -0 0.453279
    outer loop
      vertex -1.43618 -0.696275 14.5326
      vertex -1.4135 0.698051 14.488
      vertex -1.43618 0.696275 14.5326
    endloop
  endfacet
  facet normal 0.891369 0 0.453279
    outer loop
      vertex -1.4135 0.698051 14.488
      vertex -1.43618 -0.696275 14.5326
      vertex -1.4135 -0.698051 14.488
    endloop
  endfacet
  facet normal 0.987701 0 0.156353
    outer loop
      vertex -1.47485 0.695243 14.6769
      vertex -1.46703 -0.694863 14.6275
      vertex -1.46703 0.694863 14.6275
    endloop
  endfacet
  facet normal 0.987701 0 0.156353
    outer loop
      vertex -1.46703 -0.694863 14.6275
      vertex -1.47485 0.695243 14.6769
      vertex -1.47485 -0.695243 14.6769
    endloop
  endfacet
  facet normal 0.965986 -0 0.258596
    outer loop
      vertex -1.46703 -0.694863 14.6275
      vertex -1.4541 0.695208 14.5792
      vertex -1.46703 0.694863 14.6275
    endloop
  endfacet
  facet normal 0.965986 0 0.258596
    outer loop
      vertex -1.4541 0.695208 14.5792
      vertex -1.46703 -0.694863 14.6275
      vertex -1.4541 -0.695208 14.5792
    endloop
  endfacet
endsolid OpenSCAD_Model
